<?xml version="1.0" encoding="UTF-8" standalone="no"?>
<svg
   xmlns:dc="http://purl.org/dc/elements/1.1/"
   xmlns:cc="http://creativecommons.org/ns#"
   xmlns:rdf="http://www.w3.org/1999/02/22-rdf-syntax-ns#"
   xmlns:svg="http://www.w3.org/2000/svg"
   xmlns="http://www.w3.org/2000/svg"
   xmlns:sodipodi="http://sodipodi.sourceforge.net/DTD/sodipodi-0.dtd"
   xmlns:inkscape="http://www.inkscape.org/namespaces/inkscape"
   contentStyleType="text/css"
   height="529.5"
   preserveAspectRatio="none"
   version="1.1"
   viewBox="0 0 496.09735 529.5"
   width="496.09735"
   zoomAndPan="magnify"
   id="svg1249"
   sodipodi:docname="class_diagram_with_line.svg"
   inkscape:version="1.0.2 (e86c870879, 2021-01-15)">
  <metadata
     id="metadata1253">
    <rdf:RDF>
      <cc:Work
         rdf:about="">
        <dc:format>image/svg+xml</dc:format>
        <dc:type
           rdf:resource="http://purl.org/dc/dcmitype/StillImage" />
        <dc:title></dc:title>
      </cc:Work>
    </rdf:RDF>
  </metadata>
  <sodipodi:namedview
     pagecolor="#ffffff"
     bordercolor="#666666"
     borderopacity="1"
     objecttolerance="10"
     gridtolerance="10"
     guidetolerance="10"
     inkscape:pageopacity="0"
     inkscape:pageshadow="2"
     inkscape:window-width="1920"
     inkscape:window-height="1080"
     id="namedview1251"
     showgrid="false"
     inkscape:zoom="0.57883787"
     inkscape:cx="-463.27489"
     inkscape:cy="226.94073"
     inkscape:window-x="0"
     inkscape:window-y="0"
     inkscape:window-maximized="0"
     inkscape:current-layer="svg1249" />
  <defs
     id="defs1121" />
  <g
     id="g1247"
     transform="translate(52.363309,-6.75)">
    <!--class Slab-->
    <g
       id="elem_Slab">
      <rect
         codeLine="1"
         fill="#f1f1f1"
         height="80.593803"
         id="Slab"
         rx="2.5"
         ry="2.5"
         style="stroke:#181818;stroke-width:0.5"
         width="210"
         x="10.8404"
         y="115" />
      <circle
         cx="96.090401"
         cy="131"
         fill="#a9dcdf"
         style="stroke:#181818;stroke-width:1"
         id="ellipse1124"
         r="11" />
      <path
         d="m 98.1685,132.8125 0.3906,0.9844 h -0.3906 c -0.4531,0 -0.5625,0.0156 -0.7187,0.125 -0.25,0.1562 -0.4063,0.4375 -0.4063,0.7344 0,0.2656 0.1406,0.5156 0.3594,0.6718 0.1406,0.125 0.3437,0.1719 0.7656,0.1719 h 2.3594 c 0.3594,0 0.5781,-0.0312 0.7187,-0.125 0.25,-0.1406 0.4063,-0.4375 0.4063,-0.7187 0,-0.2813 -0.1406,-0.5313 -0.3594,-0.6875 -0.1719,-0.1407 -0.3281,-0.1719 -0.7969,-0.1719 l -3.3906,-8.2031 h -3.6719 c -0.4531,0 -0.5781,0.0156 -0.7343,0.1093 -0.25,0.1719 -0.4063,0.4532 -0.4063,0.7344 0,0.2813 0.1406,0.5313 0.3594,0.7031 0.1719,0.1094 0.3437,0.1407 0.7812,0.1407 h 1.0782 l -2.6407,6.5156 c -0.4218,0 -0.5781,0.0156 -0.7343,0.125 -0.25,0.1562 -0.4063,0.4375 -0.4063,0.7344 0,0.5625 0.375,0.8437 1.125,0.8437 h 2.2656 c 0.3594,0 0.5782,-0.0312 0.7032,-0.125 0.2656,-0.1406 0.4062,-0.4375 0.4062,-0.7187 0,-0.2813 -0.125,-0.5313 -0.3437,-0.7032 -0.1719,-0.125 -0.3125,-0.1562 -0.7657,-0.1562 H 93.731 l 0.3906,-0.9844 z m -0.7031,-1.7031 h -2.6719 l 1.3438,-3.2656 z"
         fill="#000000"
         id="path1126" />
      <text
         fill="#000000"
         font-family="sans-serif"
         font-size="14px"
         font-style="italic"
         lengthAdjust="spacing"
         textLength="31"
         x="116.5904"
         y="135.84669"
         id="text1128">Slab</text>
      <line
         style="stroke:#181818;stroke-width:0.5"
         x1="11.8404"
         x2="219.84039"
         y1="147"
         y2="147"
         id="line1130" />
      <text
         fill="#000000"
         font-family="sans-serif"
         font-size="14px"
         lengthAdjust="spacing"
         textLength="198"
         x="16.840401"
         y="163.9951"
         id="text1132">real, allocatable :: u1, u2, u3</text>
      <line
         style="stroke:#181818;stroke-width:0.5"
         x1="11.8404"
         x2="219.84039"
         y1="171.29691"
         y2="171.29691"
         id="line1134" />
      <text
         fill="#000000"
         font-family="sans-serif"
         font-size="14px"
         font-style="italic"
         lengthAdjust="spacing"
         textLength="98"
         x="16.840401"
         y="188.29201"
         id="text1136">differentiate()</text>
    </g>
    <!--class Allocator-->
    <g
       id="elem_Allocator">
      <rect
         codeLine="2"
         fill="#f1f1f1"
         height="48"
         id="Allocator"
         rx="2.5"
         ry="2.5"
         style="stroke:#181818;stroke-width:0.5"
         width="96"
         x="67.840401"
         y="488" />
      <circle
         cx="82.840401"
         cy="504"
         fill="#a9dcdf"
         style="stroke:#181818;stroke-width:1"
         id="ellipse1140"
         r="11" />
      <path
         d="m 84.9185,505.8125 0.3906,0.9844 h -0.3906 c -0.4531,0 -0.5625,0.0156 -0.7187,0.125 -0.25,0.1562 -0.4063,0.4375 -0.4063,0.7344 0,0.2656 0.1406,0.5156 0.3594,0.6718 0.1406,0.125 0.3437,0.1719 0.7656,0.1719 h 2.3594 c 0.3594,0 0.5781,-0.0312 0.7187,-0.125 0.25,-0.1406 0.4063,-0.4375 0.4063,-0.7187 0,-0.2813 -0.1406,-0.5313 -0.3594,-0.6875 -0.1719,-0.1407 -0.3281,-0.1719 -0.7969,-0.1719 l -3.3906,-8.2031 h -3.6719 c -0.4531,0 -0.5781,0.0156 -0.7343,0.1093 -0.25,0.1719 -0.4063,0.4532 -0.4063,0.7344 0,0.2813 0.1406,0.5313 0.3594,0.7031 0.1719,0.1094 0.3437,0.1407 0.7812,0.1407 h 1.0782 l -2.6407,6.5156 c -0.4218,0 -0.5781,0.0156 -0.7343,0.125 -0.25,0.1562 -0.4063,0.4375 -0.4063,0.7344 0,0.5625 0.375,0.8437 1.125,0.8437 h 2.2656 c 0.3594,0 0.5782,-0.0312 0.7032,-0.125 0.2656,-0.1406 0.4062,-0.4375 0.4062,-0.7187 0,-0.2813 -0.125,-0.5313 -0.3437,-0.7032 -0.1719,-0.125 -0.3125,-0.1562 -0.7657,-0.1562 H 80.481 l 0.3906,-0.9844 z m -0.7031,-1.7031 h -2.6719 l 1.3438,-3.2656 z"
         fill="#000000"
         id="path1142" />
      <text
         fill="#000000"
         font-family="sans-serif"
         font-size="14px"
         font-style="italic"
         lengthAdjust="spacing"
         textLength="64"
         x="96.840401"
         y="508.84671"
         id="text1144">Allocator</text>
      <line
         style="stroke:#181818;stroke-width:0.5"
         x1="68.840401"
         x2="162.84039"
         y1="520"
         y2="520"
         id="line1146" />
      <line
         style="stroke:#181818;stroke-width:0.5"
         x1="68.840401"
         x2="162.84039"
         y1="528"
         y2="528"
         id="line1148" />
    </g>
    <!--class VectorField3D-->
    <g
       id="elem_VectorField3D">
      <rect
         fill="#f1f1f1"
         height="48"
         id="VectorField3D"
         rx="2.5"
         ry="2.5"
         style="stroke:#181818;stroke-width:0.5"
         width="135"
         x="48.340401"
         y="7" />
      <circle
         cx="63.340401"
         cy="23"
         fill="#add1b2"
         style="stroke:#181818;stroke-width:1"
         id="ellipse1152"
         r="11" />
      <path
         d="m 65.6841,18.6719 c -0.9375,-0.4375 -1.5312,-0.5781 -2.4062,-0.5781 -2.625,0 -4.625,2.0781 -4.625,4.7968 v 1.125 c 0,2.5782 2.1094,4.4688 5,4.4688 1.2187,0 2.375,-0.2969 3.125,-0.8438 0.5781,-0.4062 0.9062,-0.8593 0.9062,-1.25 0,-0.4531 -0.3906,-0.8437 -0.8593,-0.8437 -0.2188,0 -0.4219,0.0781 -0.6094,0.2656 -0.4531,0.4844 -0.4531,0.4844 -0.6406,0.5781 -0.4219,0.2657 -1.1094,0.3907 -1.875,0.3907 -2.0469,0 -3.3438,-1.0938 -3.3438,-2.7969 v -1.0938 c 0,-1.7812 1.25,-3.0937 2.9844,-3.0937 0.5781,0 1.1875,0.1562 1.6562,0.4062 0.4844,0.2813 0.6563,0.5 0.75,0.9063 0.0625,0.4062 0.0938,0.5312 0.2344,0.6562 0.1406,0.1407 0.375,0.25 0.5938,0.25 0.2656,0 0.5312,-0.1406 0.7031,-0.3593 0.1094,-0.1563 0.1406,-0.3438 0.1406,-0.7657 v -1.4218 c 0,-0.4375 -0.0156,-0.5625 -0.1094,-0.7188 -0.1562,-0.2656 -0.4375,-0.4062 -0.7343,-0.4062 -0.2969,0 -0.5,0.0937 -0.7188,0.4062 z"
         fill="#000000"
         id="path1154" />
      <text
         fill="#000000"
         font-family="sans-serif"
         font-size="14px"
         lengthAdjust="spacing"
         textLength="103"
         x="77.340401"
         y="27.846701"
         id="text1156">VectorField3D</text>
      <line
         style="stroke:#181818;stroke-width:0.5"
         x1="49.340401"
         x2="182.34039"
         y1="39"
         y2="39"
         id="line1158" />
      <line
         style="stroke:#181818;stroke-width:0.5"
         x1="49.340401"
         x2="182.34039"
         y1="47"
         y2="47"
         id="line1160" />
    </g>
    <!--class SlabGPU-->
    <g
       id="elem_SlabGPU">
      <rect
         fill="#f1f1f1"
         height="64.296898"
         id="SlabGPU"
         rx="2.5"
         ry="2.5"
         style="stroke:#181818;stroke-width:0.5"
         width="115"
         x="58.340401"
         y="256" />
      <circle
         cx="83.690399"
         cy="272"
         fill="#add1b2"
         style="stroke:#181818;stroke-width:1"
         id="ellipse1164"
         r="11" />
      <path
         d="m 86.0341,267.6719 c -0.9375,-0.4375 -1.5312,-0.5781 -2.4062,-0.5781 -2.625,0 -4.625,2.0781 -4.625,4.7968 v 1.125 c 0,2.5782 2.1094,4.4688 5,4.4688 1.2187,0 2.375,-0.2969 3.125,-0.8438 0.5781,-0.4062 0.9062,-0.8593 0.9062,-1.25 0,-0.4531 -0.3906,-0.8437 -0.8593,-0.8437 -0.2188,0 -0.4219,0.0781 -0.6094,0.2656 -0.4531,0.4844 -0.4531,0.4844 -0.6406,0.5781 -0.4219,0.2657 -1.1094,0.3907 -1.875,0.3907 -2.0469,0 -3.3438,-1.0938 -3.3438,-2.7969 v -1.0938 c 0,-1.7812 1.25,-3.0937 2.9844,-3.0937 0.5781,0 1.1875,0.1562 1.6562,0.4062 0.4844,0.2813 0.6563,0.5 0.75,0.9063 0.0625,0.4062 0.0938,0.5312 0.2344,0.6562 0.1406,0.1407 0.375,0.25 0.5938,0.25 0.2656,0 0.5312,-0.1406 0.7031,-0.3593 0.1094,-0.1563 0.1406,-0.3438 0.1406,-0.7657 v -1.4218 c 0,-0.4375 -0.0156,-0.5625 -0.1094,-0.7188 -0.1562,-0.2656 -0.4375,-0.4062 -0.7343,-0.4062 -0.2969,0 -0.5,0.0937 -0.7188,0.4062 z"
         fill="#000000"
         id="path1166" />
      <text
         fill="#000000"
         font-family="sans-serif"
         font-size="14px"
         lengthAdjust="spacing"
         textLength="60"
         x="99.990402"
         y="276.84671"
         id="text1168">SlabGPU</text>
      <line
         style="stroke:#181818;stroke-width:0.5"
         x1="59.340401"
         x2="172.34039"
         y1="288"
         y2="288"
         id="line1170" />
      <line
         style="stroke:#181818;stroke-width:0.5"
         x1="59.340401"
         x2="172.34039"
         y1="296"
         y2="296"
         id="line1172" />
      <text
         fill="#000000"
         font-family="sans-serif"
         font-size="14px"
         lengthAdjust="spacing"
         textLength="103"
         x="64.340401"
         y="312.99509"
         id="text1174">differentiate()</text>
    </g>
    <!--class SlabCPU-->
    <g
       id="elem_SlabCPU">
      <rect
         fill="#f1f1f1"
         height="64.296898"
         id="SlabCPU"
         rx="2.5"
         ry="2.5"
         style="stroke:#181818;stroke-width:0.5"
         width="115"
         x="213.34039"
         y="256" />
      <circle
         cx="239.1404"
         cy="272"
         fill="#add1b2"
         style="stroke:#181818;stroke-width:1"
         id="ellipse1178"
         r="11" />
      <path
         d="m 241.4841,267.6719 c -0.9375,-0.4375 -1.5312,-0.5781 -2.4062,-0.5781 -2.625,0 -4.625,2.0781 -4.625,4.7968 v 1.125 c 0,2.5782 2.1094,4.4688 5,4.4688 1.2187,0 2.375,-0.2969 3.125,-0.8438 0.5781,-0.4062 0.9062,-0.8593 0.9062,-1.25 0,-0.4531 -0.3906,-0.8437 -0.8593,-0.8437 -0.2188,0 -0.4219,0.0781 -0.6094,0.2656 -0.4531,0.4844 -0.4531,0.4844 -0.6406,0.5781 -0.4219,0.2657 -1.1094,0.3907 -1.875,0.3907 -2.0469,0 -3.3438,-1.0938 -3.3438,-2.7969 v -1.0938 c 0,-1.7812 1.25,-3.0937 2.9844,-3.0937 0.5781,0 1.1875,0.1562 1.6562,0.4062 0.4844,0.2813 0.6563,0.5 0.75,0.9063 0.0625,0.4062 0.0938,0.5312 0.2344,0.6562 0.1406,0.1407 0.375,0.25 0.5938,0.25 0.2656,0 0.5312,-0.1406 0.7031,-0.3593 0.1094,-0.1563 0.1406,-0.3438 0.1406,-0.7657 v -1.4218 c 0,-0.4375 -0.0156,-0.5625 -0.1094,-0.7188 -0.1562,-0.2656 -0.4375,-0.4062 -0.7343,-0.4062 -0.2969,0 -0.5,0.0937 -0.7188,0.4062 z"
         fill="#000000"
         id="path1180" />
      <text
         fill="#000000"
         font-family="sans-serif"
         font-size="14px"
         lengthAdjust="spacing"
         textLength="59"
         x="255.54041"
         y="276.84671"
         id="text1182">SlabCPU</text>
      <line
         style="stroke:#181818;stroke-width:0.5"
         x1="214.34039"
         x2="327.34039"
         y1="288"
         y2="288"
         id="line1184" />
      <line
         style="stroke:#181818;stroke-width:0.5"
         x1="214.34039"
         x2="327.34039"
         y1="296"
         y2="296"
         id="line1186" />
      <text
         fill="#000000"
         font-family="sans-serif"
         font-size="14px"
         lengthAdjust="spacing"
         textLength="103"
         x="219.34039"
         y="312.99509"
         id="text1188">differentiate()</text>
    </g>
    <!--class AllocatorCPU-->
    <g
       id="elem_AllocatorCPU">
      <rect
         fill="#f1f1f1"
         height="48"
         id="AllocatorCPU"
         rx="2.5"
         ry="2.5"
         style="stroke:#181818;stroke-width:0.5"
         width="125"
         x="214.34039"
         y="380" />
      <circle
         cx="229.34039"
         cy="396"
         fill="#add1b2"
         style="stroke:#181818;stroke-width:1"
         id="ellipse1192"
         r="11" />
      <path
         d="m 231.6841,391.6719 c -0.9375,-0.4375 -1.5312,-0.5781 -2.4062,-0.5781 -2.625,0 -4.625,2.0781 -4.625,4.7968 v 1.125 c 0,2.5782 2.1094,4.4688 5,4.4688 1.2187,0 2.375,-0.2969 3.125,-0.8438 0.5781,-0.4062 0.9062,-0.8593 0.9062,-1.25 0,-0.4531 -0.3906,-0.8437 -0.8593,-0.8437 -0.2188,0 -0.4219,0.0781 -0.6094,0.2656 -0.4531,0.4844 -0.4531,0.4844 -0.6406,0.5781 -0.4219,0.2657 -1.1094,0.3907 -1.875,0.3907 -2.0469,0 -3.3438,-1.0938 -3.3438,-2.7969 v -1.0938 c 0,-1.7812 1.25,-3.0937 2.9844,-3.0937 0.5781,0 1.1875,0.1562 1.6562,0.4062 0.4844,0.2813 0.6563,0.5 0.75,0.9063 0.0625,0.4062 0.0938,0.5312 0.2344,0.6562 0.1406,0.1407 0.375,0.25 0.5938,0.25 0.2656,0 0.5312,-0.1406 0.7031,-0.3593 0.1094,-0.1563 0.1406,-0.3438 0.1406,-0.7657 v -1.4218 c 0,-0.4375 -0.0156,-0.5625 -0.1094,-0.7188 -0.1562,-0.2656 -0.4375,-0.4062 -0.7343,-0.4062 -0.2969,0 -0.5,0.0937 -0.7188,0.4062 z"
         fill="#000000"
         id="path1194" />
      <text
         fill="#000000"
         font-family="sans-serif"
         font-size="14px"
         lengthAdjust="spacing"
         textLength="93"
         x="243.34039"
         y="400.84671"
         id="text1196">AllocatorCPU</text>
      <line
         style="stroke:#181818;stroke-width:0.5"
         x1="215.34039"
         x2="338.34039"
         y1="412"
         y2="412"
         id="line1198" />
      <line
         style="stroke:#181818;stroke-width:0.5"
         x1="215.34039"
         x2="338.34039"
         y1="420"
         y2="420"
         id="line1200" />
    </g>
    <!--class AllocatorGPU-->
    <g
       id="elem_AllocatorGPU">
      <rect
         fill="#f1f1f1"
         height="48"
         id="AllocatorGPU"
         rx="2.5"
         ry="2.5"
         style="stroke:#181818;stroke-width:0.5"
         width="126"
         x="52.840401"
         y="380" />
      <circle
         cx="67.840401"
         cy="396"
         fill="#add1b2"
         style="stroke:#181818;stroke-width:1"
         id="ellipse1204"
         r="11" />
      <path
         d="m 70.1841,391.6719 c -0.9375,-0.4375 -1.5312,-0.5781 -2.4062,-0.5781 -2.625,0 -4.625,2.0781 -4.625,4.7968 v 1.125 c 0,2.5782 2.1094,4.4688 5,4.4688 1.2187,0 2.375,-0.2969 3.125,-0.8438 0.5781,-0.4062 0.9062,-0.8593 0.9062,-1.25 0,-0.4531 -0.3906,-0.8437 -0.8593,-0.8437 -0.2188,0 -0.4219,0.0781 -0.6094,0.2656 -0.4531,0.4844 -0.4531,0.4844 -0.6406,0.5781 -0.4219,0.2657 -1.1094,0.3907 -1.875,0.3907 -2.0469,0 -3.3438,-1.0938 -3.3438,-2.7969 v -1.0938 c 0,-1.7812 1.25,-3.0937 2.9844,-3.0937 0.5781,0 1.1875,0.1562 1.6562,0.4062 0.4844,0.2813 0.6563,0.5 0.75,0.9063 0.0625,0.4062 0.0938,0.5312 0.2344,0.6562 0.1406,0.1407 0.375,0.25 0.5938,0.25 0.2656,0 0.5312,-0.1406 0.7031,-0.3593 0.1094,-0.1563 0.1406,-0.3438 0.1406,-0.7657 v -1.4218 c 0,-0.4375 -0.0156,-0.5625 -0.1094,-0.7188 -0.1562,-0.2656 -0.4375,-0.4062 -0.7343,-0.4062 -0.2969,0 -0.5,0.0937 -0.7188,0.4062 z"
         fill="#000000"
         id="path1206" />
      <text
         fill="#000000"
         font-family="sans-serif"
         font-size="14px"
         lengthAdjust="spacing"
         textLength="94"
         x="81.840401"
         y="400.84671"
         id="text1208">AllocatorGPU</text>
      <line
         style="stroke:#181818;stroke-width:0.5"
         x1="53.840401"
         x2="177.84039"
         y1="412"
         y2="412"
         id="line1210" />
      <line
         style="stroke:#181818;stroke-width:0.5"
         x1="53.840401"
         x2="177.84039"
         y1="420"
         y2="420"
         id="line1212" />
    </g>
    <!--reverse link VectorField3D to Slab-->
    <g
       id="link_VectorField3D_Slab">
      <path
         codeLine="4"
         d="m 115.8404,68.209 c 0,14.612 0,31.522 0,46.479"
         fill="none"
         id="VectorField3D-backto-Slab"
         style="stroke:#181818;stroke-width:1" />
      <polygon
         fill="#181818"
         points="115.8404,67.041 119.8404,61.041 115.8404,55.041 111.8404,61.041 "
         style="stroke:#181818;stroke-width:1"
         id="polygon1216" />
    </g>
    <!--reverse link Slab to SlabGPU-->
    <g
       id="link_Slab_SlabGPU">
      <path
         codeLine="5"
         d="m 115.8404,216.246 c 0,13.709 0,27.744 0,39.662"
         fill="none"
         id="Slab-backto-SlabGPU"
         style="stroke:#181818;stroke-width:1" />
      <polygon
         fill="none"
         points="122.8404,216.008 108.8405,216.008 115.8404,196.008 "
         style="stroke:#181818;stroke-width:1"
         id="polygon1220" />
    </g>
    <!--reverse link Slab to SlabCPU-->
    <g
       id="link_Slab_SlabCPU">
      <path
         codeLine="6"
         d="m 178.2354,209.033 c 18.889,15.903 39.022,32.854 55.676,46.875"
         fill="none"
         id="Slab-backto-SlabCPU"
         style="stroke:#181818;stroke-width:1" />
      <polygon
         fill="none"
         points="182.5744,203.535 173.5574,214.245 162.7664,196.008 "
         style="stroke:#181818;stroke-width:1"
         id="polygon1224" />
    </g>
    <!--reverse link Slab to Allocator-->
    <g
       id="link_Slab_Allocator">
      <path
         codeLine="13"
         d="M 68.9582,206.662 C 57.7349,221.497 47.1768,238.485 40.8404,256 14.8182,327.929 6,357.154 34.8404,428 c 9.7931,24.0564 30.2842,44.944 48.2051,59.7478"
         fill="none"
         id="Slab-backto-Allocator"
         style="stroke:#181818;stroke-width:1" />
      <polygon
         fill="#181818"
         points="69.7452,205.6688 76.6065,203.4499 77.1972,196.263 70.336,198.4819 "
         style="stroke:#181818;stroke-width:1"
         id="polygon1228" />
    </g>
    <!--reverse link SlabCPU to AllocatorCPU-->
    <g
       id="link_SlabCPU_AllocatorCPU">
      <path
         codeLine="14"
         d="m 273.1864,333.573 c 0.832,15.814 1.735,32.97 2.435,46.272"
         fill="none"
         id="SlabCPU-backto-AllocatorCPU"
         style="stroke:#181818;stroke-width:1" />
      <polygon
         fill="#181818"
         points="273.1107,332.1344 276.79,325.9326 272.4804,320.151 268.8011,326.3528 "
         style="stroke:#181818;stroke-width:1"
         id="polygon1232" />
    </g>
    <!--reverse link SlabGPU to AllocatorGPU-->
    <g
       id="link_SlabGPU_AllocatorGPU">
      <path
         codeLine="15"
         d="m 115.8404,333.573 c 0,15.814 0,32.97 0,46.272"
         fill="none"
         id="SlabGPU-backto-AllocatorGPU"
         style="stroke:#181818;stroke-width:1" />
      <polygon
         fill="#181818"
         points="115.8404,332.151 119.8404,326.151 115.8404,320.151 111.8404,326.151 "
         style="stroke:#181818;stroke-width:1"
         id="polygon1236" />
    </g>
    <!--reverse link AllocatorGPU to Allocator-->
    <g
       id="link_AllocatorGPU_Allocator">
      <path
         codeLine="16"
         d="m 115.8404,448.0236 c 0,13.5556 0,28.0145 0,39.6548"
         fill="none"
         id="AllocatorGPU-backto-Allocator"
         style="stroke:#181818;stroke-width:1" />
      <polygon
         fill="none"
         points="122.8404,448.0004 108.8405,448.0005 115.8404,428 "
         style="stroke:#181818;stroke-width:1"
         id="polygon1240" />
    </g>
    <!--reverse link AllocatorCPU to Allocator-->
    <g
       id="link_AllocatorCPU_Allocator">
      <path
         codeLine="17"
         d="m 225.1274,439.0468 c -24.22,15.9463 -52.445,34.529 -74.143,48.8149"
         fill="none"
         id="AllocatorCPU-backto-Allocator"
         style="stroke:#181818;stroke-width:1" />
      <polygon
         fill="none"
         points="229.0504,444.8451 221.3514,433.152 241.9054,428 "
         style="stroke:#181818;stroke-width:1"
         id="polygon1244" />
    </g>
    <!--SRC=[ROyn2y8m48Nt_8eRLTf1kmKNgTXL4DqlwHKAXuKadTJ_Ra8QseOEIRZtxhxSGsMTGUr0CreB3qObSArTc0UDRZ12l4ZxzzOJjzKL3cKP1y85v-zKDlTdfjHUYPA4JwB_eEsxZWozNO-ETllKOGYv08o_ec82AM4y5Z2U_Ad4HFITMu1cqudiiF2S9d5MQZqjt-H6IBKiOhgPjYHatXy0]-->
  </g>
  <path
     style="fill:none;stroke:#000000;stroke-width:2.13543;stroke-linecap:butt;stroke-linejoin:miter;stroke-miterlimit:4;stroke-dasharray:17.0835, 2.13543;stroke-dashoffset:0;stroke-opacity:1"
     d="M 0,223.21644 H 496.09735"
     id="path1255" />
</svg>
